# xmcd
#
# Track frame offsets:
#	150
#	19526
#	35954
#	52756
#	68950
#	88759
#	105604
#	124710
#	141070
#	157922
#	175768
#	209555
#
# Disc length: 4442 seconds
#
# Revision: 0
# Processed by: cddbd v1.4PL0 Copyright (c) Steve Scherf et al.
# Submitted via: EasyCDDAExtractor 5.0.5.1
#
DISCID=9f11580c
DTITLE=Mighty 44 - Greatest Hits Vol.1
DYEAR=2003
DGENRE=Dance
TTITLE0=Bad Boys
TTITLE1=Mighty 44
TTITLE2=Still Rocking
TTITLE3=Push It
TTITLE4=Twist and Shake
TTITLE5=I'm Gonna Get You
TTITLE6=Island Rock
TTITLE7=Freaky Style
TTITLE8=Superstar
TTITLE9=Fantasy
TTITLE10=Rock Steady
TTITLE11=data
EXTD=
EXTT0=
EXTT1=
EXTT2=
EXTT3=
EXTT4=
EXTT5=
EXTT6=
EXTT7=
EXTT8=
EXTT9=
EXTT10=
EXTT11=
PLAYORDER=
